<svg xmlns="http://www.w3.org/2000/svg" viewBox="0 0 563.639 137.1537"><defs><style>.a{fill:#f43b86;}.b{fill:#333;}.c{fill:#f99;}.d{fill:#f261a3;}.e{fill:#ef78b4;}</style></defs><polygon points="290.461 0.046 285.583 0.046 285.492 25.47 262.52 0.059 260.811 0.059 260.811 0.06 260.666 0.06 255.362 0.06 252.661 2.842 257.724 2.847 257.724 31.068 255.208 31.068 252.656 33.697 262.419 33.697 262.494 8.636 285.478 33.684 285.485 33.684 287.406 33.684 290.461 33.684 290.465 30.896 290.465 2.675 290.461 0.046"/><polygon points="328.393 0.046 323.515 0.046 323.424 25.47 300.452 0.059 298.743 0.059 298.743 0.059 298.597 0.059 295.655 2.847 295.655 31.068 295.655 33.697 300.35 33.697 300.425 8.636 323.409 33.684 323.417 33.684 325.337 33.684 328.393 33.684 328.397 30.896 328.397 2.675 328.393 0.046"/><polygon points="295.655 0.059 295.655 2.847 298.597 0.059 295.655 0.059"/><polygon points="359.444 29.525 339.288 29.525 339.288 18.304 339.288 14.262 339.288 4.182 354.943 4.182 359.444 4.182 359.437 0.099 359.437 0.046 337.349 0.046 333.669 0.046 333.669 3.051 333.669 30.692 333.669 33.697 337.349 33.697 355.793 33.696 359.444 33.696 360.289 33.696 360.289 29.533 360.289 29.525 359.444 29.525"/><polygon points="375.508 0.046 373.019 1.805 373.019 31.938 375.508 33.697 396.819 33.696 399.639 29.525 377.748 29.525 377.748 18.304 394.455 18.304 399.639 14.262 377.748 14.262 377.748 4.182 395.836 4.182 399.639 0.046 398.856 0.046 375.508 0.046"/><polygon points="438.867 0.046 433.989 0.046 433.899 25.47 410.926 0.059 409.217 0.059 409.217 0.059 409.072 0.059 406.13 2.847 406.13 31.068 406.13 33.697 410.825 33.697 410.9 8.636 433.884 33.684 433.891 33.684 435.812 33.684 438.867 33.684 438.871 30.896 438.871 2.675 438.867 0.046"/><polygon points="406.13 0.059 406.13 2.847 409.072 0.059 406.13 0.059"/><path d="M788.4219,202.8019v3.8h7.4427v8.91a13.11,13.11,0,0,1-3.4608,1.1762,21.8064,21.8064,0,0,1-4.3609.4067,14.0742,14.0742,0,0,1-5.4046-.9948,11.6765,11.6765,0,0,1-4.0766-2.7366,12.1467,12.1467,0,0,1-2.56-4.0935,13.9063,13.9063,0,0,1-.9006-5.0206,13.6107,13.6107,0,0,1,.9006-4.9528,12.4688,12.4688,0,0,1,2.56-4.0935,11.8914,11.8914,0,0,1,4.0292-2.7812,13.3254,13.3254,0,0,1,5.3094-1.018,13.8567,13.8567,0,0,1,5.2383.95,10.9586,10.9586,0,0,1,3.864,2.5332l3.2708-3.2569a15.3985,15.3985,0,0,0-5.2383-3.03,21.2085,21.2085,0,0,0-7.1822-1.13,20.1737,20.1737,0,0,0-7.1105,1.2208,17.1707,17.1707,0,0,0-5.6652,3.415,15.4708,15.4708,0,0,0-3.7451,5.2924,18.0844,18.0844,0,0,0-.0236,13.66,15.8045,15.8045,0,0,0,3.6976,5.337,16.7406,16.7406,0,0,0,5.6652,3.4828,20.3144,20.3144,0,0,0,7.229,1.244,30.2931,30.2931,0,0,0,6.8269-.7237,25.0428,25.0428,0,0,0,5.7831-2.0807V202.8019Z" transform="translate(-323.1805 -187.4232)"/><polygon points="530.858 0 525.98 0 525.889 25.425 502.917 0.013 501.208 0.013 501.208 0.014 501.063 0.014 498.121 2.802 498.121 31.022 498.121 33.652 502.816 33.652 502.891 8.591 525.875 33.638 525.882 33.638 527.803 33.638 530.858 33.638 530.862 30.85 530.862 2.629 530.858 0"/><polygon points="498.121 0.013 498.121 2.802 501.063 0.013 498.121 0.013"/><rect x="485.2588" y="0.0589" width="4.6762" height="33.5339"/><polygon points="559.836 4.137 563.639 4.137 563.639 0 562.856 0 539.508 0 537.019 0 537.019 1.759 537.019 31.893 537.019 33.652 539.508 33.652 560.819 33.651 563.639 33.651 563.639 29.48 541.748 29.48 541.748 18.258 558.455 18.258 563.639 18.258 563.639 14.217 541.748 14.217 541.748 4.137 559.836 4.137"/><path class="a" d="M576.75,240.229H600.631a26.1494,26.1494,0,0,1,11.3216,2.2067,15.4921,15.4921,0,0,1,6.9076,6.0824,16.976,16.976,0,0,1,2.2865,8.7968A14.4686,14.4686,0,0,1,619.7178,264a12.1586,12.1586,0,0,1-3.8907,4.4932,17.4161,17.4161,0,0,1-5.6683,2.541v.6349a13.5386,13.5386,0,0,1,6.51,2.1431,14.5955,14.5955,0,0,1,5.0651,5.5585,18.7853,18.7853,0,0,1-.4129,17.4663,15.91,15.91,0,0,1-7.32,6.1759,29.626,29.626,0,0,1-12.29,2.2554H576.75Zm28.9625,26.8344a10.0643,10.0643,0,0,0,4.1919-3.5875,9.5988,9.5988,0,0,0,1.5244-5.3988,9.3042,9.3042,0,0,0-1.27-4.86,8.55,8.55,0,0,0-3.8427-3.3343,14.8266,14.8266,0,0,0-6.32-1.2063h-13.37v19.6581h13.116A13.71,13.71,0,0,0,605.7124,267.0634Zm2.5092,28.5023a9.03,9.03,0,0,0,4.2867-3.3493,8.9139,8.9139,0,0,0,1.3659-4.9236,10.68,10.68,0,0,0-6.0337-9.7486,14.5965,14.5965,0,0,0-6.733-1.4931H586.6263v20.7383h14.132A19.4827,19.4827,0,0,0,608.2216,295.5657Z" transform="translate(-323.1805 -187.4232)"/><path class="a" d="M642.1064,303.1088a21.0019,21.0019,0,0,1-8.0028-8.8442,32.2489,32.2489,0,0,1,0-26.4066,20.9792,20.9792,0,0,1,8.0028-8.86,24.3331,24.3331,0,0,1,23.9292,0,20.91,20.91,0,0,1,7.971,8.86,32.4133,32.4133,0,0,1,0,26.4066,20.9319,20.9319,0,0,1-7.971,8.8442,24.3412,24.3412,0,0,1-23.9292,0Zm19.1977-7.1452a13.73,13.73,0,0,0,4.3984-6.1934,26.6472,26.6472,0,0,0,0-17.4027,13.9429,13.9429,0,0,0-4.3984-6.2246,11.2527,11.2527,0,0,0-7.1932-2.3177,11.4055,11.4055,0,0,0-7.2568,2.3014,14.0483,14.0483,0,0,0-4.43,6.2246,26.1568,26.1568,0,0,0,0,17.419,13.9425,13.9425,0,0,0,4.43,6.1934,12.558,12.558,0,0,0,14.45,0Z" transform="translate(-323.1805 -187.4232)"/><path class="a" d="M695.9037,305.2681H686.313v-48.779h9.21v7.971h.6032a14.6534,14.6534,0,0,1,3.16-4.573,13.51,13.51,0,0,1,4.8113-2.9851,18.3646,18.3646,0,0,1,6.4154-1.0491,17.666,17.666,0,0,1,8.765,2.0969,14.064,14.064,0,0,1,5.7955,6.24,22.5046,22.5046,0,0,1,2.0482,10.0517v31.027H717.53v-29.852a13.9057,13.9057,0,0,0-1.2225-6.05,8.6806,8.6806,0,0,0-3.5408-3.8907,10.9109,10.9109,0,0,0-5.526-1.3335,11.6686,11.6686,0,0,0-5.8754,1.4458,10.1956,10.1956,0,0,0-4.0011,4.1913,13.7857,13.7857,0,0,0-1.4607,6.5576Z" transform="translate(-323.1805 -187.4232)"/><path class="a" d="M748.4449,322.8454a16.9242,16.9242,0,0,1-7.3679-5.0333A14.0131,14.0131,0,0,1,737.9491,310h9.781a7.2761,7.2761,0,0,0,1.9691,3.8271,9.4134,9.4134,0,0,0,3.97,2.3027,19.1565,19.1565,0,0,0,5.6845.7622q5.8743,0,9.146-2.6832,3.2708-2.685,3.2714-8.2417v-9.59h-.6356l-.1266.222a20.0772,20.0772,0,0,1-2.7792,3.7947,13.38,13.38,0,0,1-4.3666,2.89,16.8478,16.8478,0,0,1-6.86,1.2537,18.991,18.991,0,0,1-17.7526-11.1307,29.3736,29.3736,0,0,1-2.6676-13.0368,30.2475,30.2475,0,0,1,2.652-13.1465,19.0247,19.0247,0,0,1,17.8637-11.37,16.0341,16.0341,0,0,1,6.6212,1.2387,13.1476,13.1476,0,0,1,4.2712,2.874,24.9381,24.9381,0,0,1,2.8585,3.7635q.1908.3181.381.6674h.635v-7.9074h9.3687v49.8268a17.6013,17.6013,0,0,1-2.81,10.1939,16.6554,16.6554,0,0,1-7.7808,6.0824,30.5367,30.5367,0,0,1-11.3852,1.9846A30.9341,30.9341,0,0,1,748.4449,322.8454Zm17.5936-28.1529a12.0949,12.0949,0,0,0,4.3347-5.5248,22.372,22.372,0,0,0,1.4926-8.6072,23.7518,23.7518,0,0,0-1.4607-8.6858,12.5568,12.5568,0,0,0-4.3348-5.7955,12.5725,12.5725,0,0,0-13.9256.08,13.0039,13.0039,0,0,0-4.3509,5.89,23.2848,23.2848,0,0,0-1.4608,8.5111,21.9173,21.9173,0,0,0,1.4926,8.4313,12.5571,12.5571,0,0,0,4.351,5.6221,13.1419,13.1419,0,0,0,13.8619.0786Z" transform="translate(-323.1805 -187.4232)"/><path class="a" d="M801.558,303.1088a21.0031,21.0031,0,0,1-8.0028-8.8442,32.25,32.25,0,0,1,0-26.4066,20.98,20.98,0,0,1,8.0028-8.86,24.3331,24.3331,0,0,1,23.9292,0,20.91,20.91,0,0,1,7.971,8.86,32.4122,32.4122,0,0,1,0,26.4066,20.9319,20.9319,0,0,1-7.971,8.8442,24.3412,24.3412,0,0,1-23.9292,0Zm19.1978-7.1452a13.7315,13.7315,0,0,0,4.3984-6.1934,26.6472,26.6472,0,0,0,0-17.4027,13.9444,13.9444,0,0,0-4.3984-6.2246,11.2529,11.2529,0,0,0-7.1932-2.3177,11.4058,11.4058,0,0,0-7.2569,2.3014,14.0491,14.0491,0,0,0-4.43,6.2246,26.1584,26.1584,0,0,0,0,17.419,13.9433,13.9433,0,0,0,4.43,6.1934,12.5582,12.5582,0,0,0,14.45,0Z" transform="translate(-323.1805 -187.4232)"/><path class="b" d="M503.7031,258.4511c2.6279-.8182,4.9869-1.8884,7.45-2.2511,5.4314-.8,9.6518,1.67,12.8037,5.8733,5.4292,7.24,6.5457,15.6666,6.1551,24.3963a23.7231,23.7231,0,0,1-3.9154,12.6631,8.2429,8.2429,0,0,1-7.4485,4.0444q-94.7263-.1645-189.453-.08c-4.9351,0-6.8589-2.3131-5.8586-7.1778.9666-4.7,3.79-8.4532,6.7638-11.9788,5.9227-7.0217,12.122-13.81,18.1251-20.765a4.9345,4.9345,0,0,0,1.1113-3.0062c-.0761-8.5641-.3883-17.127-.3841-25.69a27.44,27.44,0,0,1,1.2688-7.4944c1.3578-4.6808,4.8382-6.4134,9.5094-5.0077a54.2879,54.2879,0,0,1,16.6758,8.8679,3.3942,3.3942,0,0,0,4.1093.4675A121.9053,121.9053,0,0,1,424.08,219.2133c4.6029-.4179,9.2631-.1722,13.8892-.3955a4.5419,4.5419,0,0,0,2.857-1.2883,29.2771,29.2771,0,0,1,13.0859-8.4014,6.0609,6.0609,0,0,1,5.2837.7359c5.5546,3.392,8.3912,8.7121,10.2523,14.6434a4.8077,4.8077,0,0,0,2.4414,3.0822c9.4234,5.2258,16.7468,12.8385,23.6132,20.949C498.2944,251.8366,501.0138,255.1961,503.7031,258.4511Zm-4.3534,3.0326c-2.3557-2.87-4.8231-5.9274-7.3442-8.94-7.3286-8.756-15.211-16.8626-25.6231-22.0695a4.0213,4.0213,0,0,1-1.3974-2.417c-1.201-4.3623-2.7629-8.5021-6.065-11.7885-1.7422-1.7339-3.4365-2.5065-5.9381-1.226a27.2748,27.2748,0,0,0-9.777,7.9513,3.44,3.44,0,0,1-2.3177,1.2571c-5.3981.1647-10.8236-.1243-16.1984.2836a113.94,113.94,0,0,0-44.9917,13.1889,2.47,2.47,0,0,1-3.0694-.2223,95.62,95.62,0,0,0-8.5982-5.8776,100.1616,100.1616,0,0,0-9.5827-4.5314c-1.8363-.8045-3,.0277-3.2895,1.9367a49.8106,49.8106,0,0,0-.9852,8.0208c.108,8.0244.5307,16.0441.7189,24.0683a6.0335,6.0335,0,0,1-.8714,3.7648c-3.0541,3.581-6.516,6.8154-9.56,10.4042-4.69,5.53-9.2358,11.1882-13.674,16.9223-1.15,1.4859-1.6728,3.4565-2.4958,5.2305a5.1636,5.1636,0,0,0,.7221.2647q30.3753.0322,60.7506.0038a2.449,2.449,0,0,0,1.8406-1.2473c1.4815-3.8743,3.2119-7.7227,4.0744-11.748,1.2824-5.9852.2627-11.6089-4.1826-16.3526-2.199-2.3466-4.6769-2.8691-7.2981-1.5942a34.7544,34.7544,0,0,0-7.0739,4.7047c-2.1114,1.7786-3.8307,4.0171-5.766,6.0113a2.58,2.58,0,0,1-3.7429.3025,2.3122,2.3122,0,0,1-.3347-3.5048c4.0337-5.0414,8.4409-9.6708,14.5157-12.3108,5.135-2.2316,9.63-1.3562,13.4887,2.72,6.6508,7.0267,7.3035,15.3422,4.9275,24.1939-.7909,2.9463-1.94,5.7966-2.9891,8.88h2.8951c39.0353,0,78.0708-.05,117.1056.0932,3.1492.0115,4.7082-1.181,5.769-3.7405a17.2663,17.2663,0,0,0,1.1008-3.0355,35.3837,35.3837,0,0,0-2.3309-22.625c-3.557-7.6188-9.6874-9.2849-16.3735-4.2138-3.5834,2.7179-6.553,6.2678-9.6734,9.5616-1.6056,1.6949-3.0183,2.2667-4.3134,1.1021-1.579-1.42-1.0178-2.94.119-4.2951C494.0414,267.6062,496.624,264.6532,499.35,261.4837Z" transform="translate(-323.1805 -187.4232)"/><path class="b" d="M446.88,277.5588c-4.1167,3.4858-7.06,3.64-9.7566.5815-.9072-1.029-1.74-2.1957-.4126-3.4036,1.3059-1.1879,2.2347-.149,3.0639.8291,1.2479,1.4721,2.4558,1.3562,3.6524-.0581a15.9248,15.9248,0,0,0,1.1943-1.4056c1.0912-1.6471,2.2567-1.9956,3.6986-.3894a5.7526,5.7526,0,0,0,1.4489,1.1278c2.0631,1.1625,3.4687.7447,4.4982-1.4217.5922-1.2463,1.1468-2.6563,2.8051-1.8495,1.7067.83,1.0609,2.3224.4559,3.611C455.6007,279.2854,452.1281,280.0779,446.88,277.5588Z" transform="translate(-323.1805 -187.4232)"/><path class="b" d="M408.6727,272.6229a4.6837,4.6837,0,0,1,4.798,4.5631,4.7638,4.7638,0,0,1-4.5966,4.8078,4.6545,4.6545,0,0,1-4.752-4.5994A4.5906,4.5906,0,0,1,408.6727,272.6229Z" transform="translate(-323.1805 -187.4232)"/><path class="b" d="M472.4684,272.2a4.4876,4.4876,0,1,1-4.4479-4.6177A4.4482,4.4482,0,0,1,472.4684,272.2Z" transform="translate(-323.1805 -187.4232)"/><ellipse class="c" cx="57.2391" cy="90.2514" rx="2.2488" ry="2.3827"/><ellipse class="c" cx="63.932" cy="87.8687" rx="2.2488" ry="2.3827"/><ellipse class="c" cx="66.6091" cy="94.2939" rx="2.2488" ry="2.3827"/><ellipse class="c" cx="59.5414" cy="97.1183" rx="2.9984" ry="3.1724"/><ellipse class="c" cx="185.1073" cy="85.2317" rx="2.2488" ry="2.3827"/><ellipse class="c" cx="191.8002" cy="82.849" rx="2.2488" ry="2.3827"/><ellipse class="c" cx="194.4774" cy="89.2742" rx="2.2488" ry="2.3827"/><ellipse class="c" cx="187.4097" cy="92.0986" rx="2.9984" ry="3.1724"/><polygon class="a" points="189.699 52.49 187.094 50.985 184.173 50.265 184.799 47.322 184.581 44.321 187.574 44.008 190.36 42.873 191.583 45.622 193.524 47.922 191.287 49.934 189.699 52.49"/><polygon class="d" points="198.55 54.962 196.583 55.488 194.84 56.542 193.732 54.834 192.191 53.502 193.473 51.92 194.264 50.043 196.165 50.774 198.194 50.946 198.086 52.979 198.55 54.962"/><polygon class="e" points="199.503 60.978 198.139 60.784 196.774 60.978 196.537 59.621 195.931 58.383 197.149 57.738 198.139 56.78 199.128 57.738 200.346 58.383 199.74 59.621 199.503 60.978"/></svg>