<svg xmlns="http://www.w3.org/2000/svg" viewBox="0 0 563.6359 137.1537"><defs><style>.a{fill:#fff;}.b{fill:#f43b86;}.c{fill:#f99;}</style></defs><polygon class="a" points="290.458 0.046 285.58 0.046 285.489 25.47 262.517 0.059 260.808 0.059 260.808 0.06 260.663 0.06 255.359 0.06 252.658 2.842 257.721 2.847 257.721 31.068 255.205 31.068 252.653 33.697 262.415 33.697 262.491 8.636 285.475 33.684 285.482 33.684 287.403 33.684 290.458 33.684 290.462 30.896 290.462 2.675 290.458 0.046"/><polygon class="a" points="328.39 0.046 323.511 0.046 323.421 25.47 300.449 0.059 298.74 0.059 298.74 0.059 298.594 0.059 295.652 2.847 295.652 31.068 295.652 33.697 300.347 33.697 300.422 8.636 323.406 33.684 323.413 33.684 325.334 33.684 328.39 33.684 328.394 30.896 328.394 2.675 328.39 0.046"/><polygon class="a" points="295.652 0.059 295.652 2.847 298.594 0.059 295.652 0.059"/><polygon class="a" points="359.441 29.525 339.285 29.525 339.285 18.304 339.285 14.262 339.285 4.182 354.94 4.182 359.441 4.182 359.434 0.099 359.434 0.046 337.345 0.046 333.665 0.046 333.665 3.051 333.665 30.692 333.665 33.697 337.345 33.697 355.79 33.696 359.441 33.696 360.285 33.696 360.285 29.533 360.285 29.525 359.441 29.525"/><polygon class="a" points="375.504 0.046 373.016 1.805 373.016 31.938 375.505 33.697 396.816 33.696 399.636 29.525 377.745 29.525 377.745 18.304 394.452 18.304 399.636 14.262 377.745 14.262 377.745 4.182 395.833 4.182 399.636 0.046 398.853 0.046 375.504 0.046"/><polygon class="a" points="438.864 0.046 433.986 0.046 433.895 25.47 410.923 0.059 409.214 0.059 409.214 0.059 409.069 0.059 406.127 2.847 406.127 31.068 406.127 33.697 410.822 33.697 410.897 8.636 433.881 33.684 433.888 33.684 435.809 33.684 438.864 33.684 438.868 30.896 438.868 2.675 438.864 0.046"/><polygon class="a" points="406.127 0.059 406.127 2.847 409.069 0.059 406.127 0.059"/><path class="a" d="M505.6683,68.2286v3.8h7.4427v8.91a13.11,13.11,0,0,1-3.4608,1.1762,21.8061,21.8061,0,0,1-4.3608.4067,14.0766,14.0766,0,0,1-5.4047-.9948,11.6765,11.6765,0,0,1-4.0766-2.7366,12.1467,12.1467,0,0,1-2.56-4.0935,13.9067,13.9067,0,0,1-.9006-5.0206,13.6107,13.6107,0,0,1,.9006-4.9528,12.4678,12.4678,0,0,1,2.56-4.0935,11.8935,11.8935,0,0,1,4.0293-2.7813,13.3246,13.3246,0,0,1,5.3093-1.018,13.8567,13.8567,0,0,1,5.2383.95,10.9586,10.9586,0,0,1,3.864,2.5332l3.2708-3.2569a15.3985,15.3985,0,0,0-5.2383-3.03,21.2085,21.2085,0,0,0-7.1822-1.13,20.1741,20.1741,0,0,0-7.1105,1.2209,17.1707,17.1707,0,0,0-5.6652,3.415,15.4711,15.4711,0,0,0-3.745,5.2923,18.084,18.084,0,0,0-.0237,13.66,15.8048,15.8048,0,0,0,3.6977,5.337,16.7408,16.7408,0,0,0,5.6651,3.4828,20.3144,20.3144,0,0,0,7.229,1.244,30.2931,30.2931,0,0,0,6.8269-.7237,25.0428,25.0428,0,0,0,5.7831-2.0807V68.2286Z" transform="translate(-40.4301 -52.8499)"/><polygon class="a" points="530.855 0 525.977 0 525.886 25.425 502.914 0.013 501.205 0.013 501.205 0.014 501.06 0.014 498.118 2.802 498.118 31.022 498.118 33.652 502.812 33.652 502.888 8.591 525.872 33.638 525.879 33.638 527.8 33.638 530.855 33.638 530.859 30.85 530.859 2.629 530.855 0"/><polygon class="a" points="498.118 0.013 498.118 2.802 501.06 0.013 498.118 0.013"/><rect class="a" x="485.2556" y="0.0589" width="4.6762" height="33.5339"/><polygon class="a" points="559.833 4.137 563.636 4.137 563.636 0 562.853 0 539.504 0 537.016 0 537.016 1.759 537.016 31.893 537.016 33.652 539.504 33.652 560.816 33.651 563.636 33.651 563.636 29.48 541.745 29.48 541.745 18.258 558.452 18.258 563.636 18.258 563.636 14.217 541.745 14.217 541.745 4.137 559.833 4.137"/><path class="b" d="M293.9963,105.6558h23.8812a26.1489,26.1489,0,0,1,11.3215,2.2067,15.4915,15.4915,0,0,1,6.9076,6.0824,16.9758,16.9758,0,0,1,2.2865,8.7968,14.4686,14.4686,0,0,1-1.4289,6.6849,12.1577,12.1577,0,0,1-3.8907,4.4932,17.4182,17.4182,0,0,1-5.6683,2.541v.6349a13.5375,13.5375,0,0,1,6.51,2.1431,14.5959,14.5959,0,0,1,5.0651,5.5584,18.7847,18.7847,0,0,1-.4129,17.4664,15.9105,15.9105,0,0,1-7.32,6.1759,29.626,29.626,0,0,1-12.29,2.2554H293.9963ZM322.9588,132.49a10.0652,10.0652,0,0,0,4.192-3.5875,9.6,9.6,0,0,0,1.5243-5.3989,9.3041,9.3041,0,0,0-1.27-4.86,8.5485,8.5485,0,0,0-3.8426-3.3343,14.827,14.827,0,0,0-6.32-1.2063h-13.37v19.658h13.116A13.71,13.71,0,0,0,322.9588,132.49Zm2.5092,28.5022a9.0292,9.0292,0,0,0,4.2867-3.3493,8.9134,8.9134,0,0,0,1.366-4.9235,10.68,10.68,0,0,0-6.0338-9.7486,14.5961,14.5961,0,0,0-6.7329-1.4931H303.8727v20.7383h14.132A19.4807,19.4807,0,0,0,325.468,160.9924Z" transform="translate(-40.4301 -52.8499)"/><path class="b" d="M359.3528,168.5356a21.0019,21.0019,0,0,1-8.0028-8.8442,32.25,32.25,0,0,1,0-26.4066,20.9792,20.9792,0,0,1,8.0028-8.86,24.3331,24.3331,0,0,1,23.9292,0,20.91,20.91,0,0,1,7.971,8.86,32.4133,32.4133,0,0,1,0,26.4066,20.9319,20.9319,0,0,1-7.971,8.8442,24.3412,24.3412,0,0,1-23.9292,0Zm19.1978-7.1452a13.7306,13.7306,0,0,0,4.3983-6.1934,26.6458,26.6458,0,0,0,0-17.4028,13.944,13.944,0,0,0-4.3983-6.2246,11.2536,11.2536,0,0,0-7.1933-2.3177,11.4057,11.4057,0,0,0-7.2568,2.3015,14.0478,14.0478,0,0,0-4.43,6.2246,26.1568,26.1568,0,0,0,0,17.419,13.9425,13.9425,0,0,0,4.43,6.1934,12.5582,12.5582,0,0,0,14.45,0Z" transform="translate(-40.4301 -52.8499)"/><path class="b" d="M413.15,170.6949h-9.5907v-48.779h9.21v7.971h.6031a14.6567,14.6567,0,0,1,3.16-4.5731,13.5117,13.5117,0,0,1,4.8113-2.985,18.3646,18.3646,0,0,1,6.4154-1.0491,17.666,17.666,0,0,1,8.765,2.0969,14.0634,14.0634,0,0,1,5.7955,6.24,22.5046,22.5046,0,0,1,2.0483,10.0517v31.027h-9.5908v-29.852a13.9057,13.9057,0,0,0-1.2225-6.05,8.68,8.68,0,0,0-3.5408-3.8907,10.9106,10.9106,0,0,0-5.526-1.3335,11.6692,11.6692,0,0,0-5.8753,1.4457,10.1946,10.1946,0,0,0-4.0011,4.1914,13.7845,13.7845,0,0,0-1.4608,6.5576Z" transform="translate(-40.4301 -52.8499)"/><path class="b" d="M465.6913,188.2722a16.9247,16.9247,0,0,1-7.3678-5.0333,14.0124,14.0124,0,0,1-3.1279-7.8126h9.781a7.2756,7.2756,0,0,0,1.969,3.8271,9.4141,9.4141,0,0,0,3.97,2.3027,19.1569,19.1569,0,0,0,5.6845.7622q5.8744,0,9.1461-2.6832,3.2706-2.6851,3.2713-8.2417v-9.59h-.6356l-.1266.222a20.0772,20.0772,0,0,1-2.7792,3.7947,13.3814,13.3814,0,0,1-4.3666,2.89,16.8473,16.8473,0,0,1-6.8595,1.2537,18.991,18.991,0,0,1-17.7527-11.1307,29.375,29.375,0,0,1-2.6676-13.0368,30.2461,30.2461,0,0,1,2.6521-13.1465,19.0244,19.0244,0,0,1,17.8636-11.37,16.0342,16.0342,0,0,1,6.6213,1.2387,13.1481,13.1481,0,0,1,4.2711,2.874,24.9315,24.9315,0,0,1,2.8585,3.7635q.1908.318.3811.6674h.6349v-7.9074h9.3687v49.8268a17.6013,17.6013,0,0,1-2.81,10.1939,16.6554,16.6554,0,0,1-7.7808,6.0824,30.5381,30.5381,0,0,1-11.3851,1.9846A30.9343,30.9343,0,0,1,465.6913,188.2722Zm17.5936-28.1529a12.0955,12.0955,0,0,0,4.3348-5.5249,22.3734,22.3734,0,0,0,1.4925-8.6071,23.7518,23.7518,0,0,0-1.4607-8.6858,12.5568,12.5568,0,0,0-4.3348-5.7955,12.5721,12.5721,0,0,0-13.9255.08,13.0036,13.0036,0,0,0-4.351,5.89,23.2869,23.2869,0,0,0-1.4607,8.5111,21.92,21.92,0,0,0,1.4925,8.4313,12.5584,12.5584,0,0,0,4.351,5.6221,13.1419,13.1419,0,0,0,13.8619.0786Z" transform="translate(-40.4301 -52.8499)"/><path class="b" d="M518.8045,168.5356a21.0019,21.0019,0,0,1-8.0028-8.8442,32.2489,32.2489,0,0,1,0-26.4066,20.9792,20.9792,0,0,1,8.0028-8.86,24.3331,24.3331,0,0,1,23.9292,0,20.91,20.91,0,0,1,7.9709,8.86,32.4122,32.4122,0,0,1,0,26.4066,20.9324,20.9324,0,0,1-7.9709,8.8442,24.3412,24.3412,0,0,1-23.9292,0Zm19.1977-7.1452a13.7308,13.7308,0,0,0,4.3984-6.1934,26.6475,26.6475,0,0,0,0-17.4028,13.9442,13.9442,0,0,0-4.3984-6.2246,11.2535,11.2535,0,0,0-7.1932-2.3177,11.406,11.406,0,0,0-7.2569,2.3015,14.0493,14.0493,0,0,0-4.43,6.2246,26.1584,26.1584,0,0,0,0,17.419,13.9441,13.9441,0,0,0,4.43,6.1934,12.5582,12.5582,0,0,0,14.45,0Z" transform="translate(-40.4301 -52.8499)"/><path class="a" d="M239.0064,133.8868a35.3287,35.3287,0,0,1,2.33,22.62,17.3115,17.3115,0,0,1-1.1,3.04c-1.06,2.56-2.62,3.75-5.77,3.74-39.03-.15-78.07-.1-117.1-.1h-2.9c1.05-3.08,2.2-5.93,2.99-8.88,2.38-8.85,1.72-17.16-4.93-24.19-3.85-4.08-8.35-4.95-13.49-2.72-6.07,2.64-10.48,7.27-14.51,12.31a2.316,2.316,0,0,0,.33,3.51,2.5877,2.5877,0,0,0,3.75-.31c1.93-1.99,3.65-4.23,5.76-6.01a34.7076,34.7076,0,0,1,7.08-4.7c2.62-1.28,5.1-.76,7.29,1.59,4.45,4.74,5.47,10.37,4.19,16.35-.86,4.03-2.6,7.88-4.08,11.75a2.4384,2.4384,0,0,1-1.84,1.25q-30.375.075-60.75,0c-.07,0-.14-.06-.72-.27.82-1.77,1.35-3.74,2.5-5.23,4.43-5.73,8.98-11.39,13.67-16.92,3.04-3.59,6.51-6.83,9.56-10.41a5.99,5.99,0,0,0,.87-3.76c-.19-8.03-.61-16.05-.72-24.07a49.7874,49.7874,0,0,1,.99-8.02c.29-1.91,1.45-2.74,3.29-1.94a103.4838,103.4838,0,0,1,9.58,4.53,96.0235,96.0235,0,0,1,8.6,5.88,2.4633,2.4633,0,0,0,3.07.22,113.7628,113.7628,0,0,1,44.99-13.18c5.37-.41,10.8-.12,16.2-.29a3.3614,3.3614,0,0,0,2.31-1.26,27.4864,27.4864,0,0,1,9.78-7.95c2.5-1.28,4.2-.5,5.94,1.23,3.3,3.29,4.86,7.43,6.06,11.79.25.88.7,2.06,1.4,2.41,10.41,5.21,18.3,13.32,25.63,22.07,2.52,3.02,4.98,6.07,7.34,8.94-2.73,3.17-5.31,6.13-7.83,9.13-1.14,1.36-1.7,2.88-.12,4.3,1.3,1.16,2.71.59,4.31-1.11,3.13-3.29,6.09-6.84,9.68-9.56C229.3164,124.5968,235.4464,126.2668,239.0064,133.8868Z" transform="translate(-40.4301 -52.8499)"/><path d="M241.2064,127.4968c5.43,7.24,6.54,15.67,6.15,24.4a23.7391,23.7391,0,0,1-3.91,12.66,8.2561,8.2561,0,0,1-7.45,4.05q-94.725-.165-189.45-.08c-4.94,0-6.86-2.32-5.86-7.18.96-4.7,3.79-8.45,6.76-11.98,5.92-7.02,12.12-13.81,18.13-20.76a4.9542,4.9542,0,0,0,1.11-3.01c-.08-8.56-.39-17.13-.39-25.69a27.6117,27.6117,0,0,1,1.27-7.5c1.36-4.68,4.84-6.41,9.51-5a54.3189,54.3189,0,0,1,16.68,8.86,3.3777,3.3777,0,0,0,4.11.47,121.89,121.89,0,0,1,43.46-12.1c4.6-.41,9.26-.17,13.89-.39a4.5594,4.5594,0,0,0,2.86-1.29,29.2207,29.2207,0,0,1,13.08-8.4,6.0649,6.0649,0,0,1,5.29.73c5.55,3.4,8.39,8.72,10.25,14.65a4.8128,4.8128,0,0,0,2.44,3.08c9.42,5.23,16.75,12.84,23.61,20.95,2.79,3.3,5.51,6.66,8.2,9.91,2.63-.82,4.99-1.89,7.45-2.25C233.8264,120.8268,238.0564,123.2968,241.2064,127.4968Zm.13,29.01a35.3287,35.3287,0,0,0-2.33-22.62c-3.56-7.62-9.69-9.29-16.37-4.22-3.59,2.72-6.55,6.27-9.68,9.56-1.6,1.7-3.01,2.27-4.31,1.11-1.58-1.42-1.02-2.94.12-4.3,2.52-3,5.1-5.96,7.83-9.13-2.36-2.87-4.82-5.92-7.34-8.94-7.33-8.75-15.22-16.86-25.63-22.07-.7-.35-1.15-1.53-1.4-2.41-1.2-4.36-2.76-8.5-6.06-11.79-1.74-1.73-3.44-2.51-5.94-1.23a27.4864,27.4864,0,0,0-9.78,7.95,3.3614,3.3614,0,0,1-2.31,1.26c-5.4.17-10.83-.12-16.2.29a113.7628,113.7628,0,0,0-44.99,13.18,2.4633,2.4633,0,0,1-3.07-.22,96.0235,96.0235,0,0,0-8.6-5.88,103.4838,103.4838,0,0,0-9.58-4.53c-1.84-.8-3,.03-3.29,1.94a49.7874,49.7874,0,0,0-.99,8.02c.11,8.02.53,16.04.72,24.07a5.99,5.99,0,0,1-.87,3.76c-3.05,3.58-6.52,6.82-9.56,10.41-4.69,5.53-9.24,11.19-13.67,16.92-1.15,1.49-1.68,3.46-2.5,5.23.58.21.65.27.72.27q30.375.03,60.75,0a2.4384,2.4384,0,0,0,1.84-1.25c1.48-3.87,3.22-7.72,4.08-11.75,1.28-5.98.26-11.61-4.19-16.35-2.19-2.35-4.67-2.87-7.29-1.59a34.7076,34.7076,0,0,0-7.08,4.7c-2.11,1.78-3.83,4.02-5.76,6.01a2.5877,2.5877,0,0,1-3.75.31,2.316,2.316,0,0,1-.33-3.51c4.03-5.04,8.44-9.67,14.51-12.31,5.14-2.23,9.64-1.36,13.49,2.72,6.65,7.03,7.31,15.34,4.93,24.19-.79,2.95-1.94,5.8-2.99,8.88h2.9c39.03,0,78.07-.05,117.1.1,3.15.01,4.71-1.18,5.77-3.74A17.3115,17.3115,0,0,0,241.3364,156.5068Z" transform="translate(-40.4301 -52.8499)"/><path d="M164.1263,142.9856c-4.1167,3.4858-7.06,3.64-9.7566.5815-.9072-1.0291-1.74-2.1958-.4125-3.4036,1.3058-1.188,2.2347-.149,3.0638.8291,1.2479,1.4721,2.4558,1.3562,3.6524-.0581a15.9261,15.9261,0,0,0,1.1943-1.4057c1.0912-1.6471,2.2567-1.9955,3.6987-.3893a5.7521,5.7521,0,0,0,1.4488,1.1278c2.0631,1.1625,3.4688.7447,4.4982-1.4217.5922-1.2463,1.1468-2.6563,2.8052-1.8495,1.7067.83,1.0609,2.3224.4559,3.611C172.8471,144.7122,169.3745,145.5047,164.1263,142.9856Z" transform="translate(-40.4301 -52.8499)"/><path d="M125.9191,138.05a4.6839,4.6839,0,0,1,4.798,4.5632,4.7636,4.7636,0,0,1-4.5966,4.8077,4.6542,4.6542,0,0,1-4.7519-4.5993A4.5905,4.5905,0,0,1,125.9191,138.05Z" transform="translate(-40.4301 -52.8499)"/><path d="M189.7149,137.6271a4.4876,4.4876,0,1,1-4.4479-4.6177A4.4484,4.4484,0,0,1,189.7149,137.6271Z" transform="translate(-40.4301 -52.8499)"/><ellipse class="c" cx="57.2359" cy="90.2514" rx="2.2488" ry="2.3827"/><ellipse class="c" cx="63.9288" cy="87.8687" rx="2.2488" ry="2.3827"/><ellipse class="c" cx="66.606" cy="94.2939" rx="2.2488" ry="2.3827"/><ellipse class="c" cx="59.5383" cy="97.1183" rx="2.9984" ry="3.1724"/><ellipse class="c" cx="185.1042" cy="85.2317" rx="2.2488" ry="2.3827"/><ellipse class="c" cx="191.7971" cy="82.849" rx="2.2488" ry="2.3827"/><ellipse class="c" cx="194.4742" cy="89.2742" rx="2.2488" ry="2.3827"/><ellipse class="c" cx="187.4065" cy="92.0986" rx="2.9984" ry="3.1724"/><polygon class="a" points="189.696 52.49 187.091 50.985 184.169 50.265 184.796 47.322 184.578 44.321 187.571 44.008 190.357 42.873 191.58 45.622 193.521 47.922 191.284 49.934 189.696 52.49"/><polygon class="a" points="198.547 54.962 196.579 55.488 194.837 56.542 193.729 54.834 192.188 53.502 193.47 51.92 194.261 50.043 196.161 50.774 198.19 50.946 198.083 52.979 198.547 54.962"/><polygon class="a" points="199.5 60.978 198.135 60.784 196.771 60.978 196.534 59.621 195.928 58.383 197.146 57.738 198.135 56.78 199.125 57.738 200.343 58.383 199.737 59.621 199.5 60.978"/></svg>